<?xml version="1.0" encoding="utf-8"?>
<!-- Generator: Adobe Illustrator 27.1.1, SVG Export Plug-In . SVG Version: 6.00 Build 0)  -->
<svg version="1.1" id="svg3025" xmlns="http://www.w3.org/2000/svg" xmlns:xlink="http://www.w3.org/1999/xlink" x="0px" y="0px"
	 viewBox="0 0 1046.1 896.7" style="enable-background:new 0 0 1046.1 896.7;" xml:space="preserve">
<style type="text/css">
	.st0{fill:#6DAA90;}
</style>
<g id="g3027">
	<path id="path3029" class="st0" d="M822,541.8v186.8c0,46.3-16.4,85.9-49.3,118.8s-72.5,49.3-118.8,49.3H168.1
		c-46.3,0-85.9-16.4-118.8-49.3C16.4,814.5,0,774.9,0,728.6V242.9c0-46.3,16.4-85.9,49.3-118.8s72.5-49.3,118.8-49.3h411
		c5.5,0,9.9,1.8,13.4,5.2s5.2,8,5.2,13.4v37.4c0,5.4-1.8,9.9-5.2,13.4s-8,5.2-13.4,5.2h-411c-25.7,0-47.7,9.1-66,27.4
		s-27.4,40.3-27.4,66v485.7c0,25.7,9.2,47.7,27.4,66s40.3,27.4,66,27.4h485.7c25.7,0,47.7-9.2,66-27.4s27.4-40.3,27.4-66V541.8
		c0-5.5,1.8-9.9,5.2-13.4s8-5.2,13.4-5.2h37.4c5.5,0,9.9,1.8,13.4,5.2S822,536.3,822,541.8L822,541.8z M1046.1,37.4v298.9
		c0,10.1-3.7,18.9-11.1,26.3s-16.2,11.1-26.3,11.1s-18.9-3.7-26.3-11.1L879.8,259.8L499.1,640.4c-3.9,3.9-8.4,5.8-13.4,5.8
		s-9.5-2-13.4-5.8l-66.5-66.5c-3.9-3.9-5.8-8.4-5.8-13.4s2-9.5,5.8-13.4l380.6-380.6L683.6,63.6c-7.4-7.4-11.1-16.2-11.1-26.3
		s3.7-18.9,11.1-26.3S699.8,0,709.9,0h298.9c10.1,0,18.9,3.7,26.3,11.1S1046.1,27.2,1046.1,37.4L1046.1,37.4z"/>
</g>
</svg>
